<svg width="1024" height="1024" version="1.1" xmlns="http://www.w3.org/2000/svg" desc="Created with imagetracer.js version 1.2.6" ><path fill="rgb(22,8,30)" stroke="rgb(22,8,30)" stroke-width="0" opacity="1" d="M 0 0 L 1024 0 L 1024 1024 L 0 1024 L 0 0 Z M 564 146 Q 532 175 525 228 L 528 271 L 547 328 L 552 357 Q 553 382 546 399 Q 533 428 512 448 Q 513 412 494 396 L 458 363 Q 434 344 421 316 Q 413 299 415 273 L 415 271 L 417 265 L 417 262 L 403 275 L 327 359 Q 308 384 301 421 L 302 423 L 300 435 L 303 458 L 290 495 Q 288 522 296 540 L 329 588 L 339 616 L 339 618 L 341 624 L 341 633 L 332 623 L 324 615 L 320 617 L 321 640 L 322 641 L 320 639 Q 317 629 305 630 L 304 633 L 308 651 L 308 652 L 290 644 L 284 645 L 290 663 L 293 666 L 270 658 L 269 661 L 277 678 L 274 677 Q 260 673 257 680 L 268 697 L 267 696 L 250 698 L 249 701 L 260 714 L 261 716 L 260 715 L 246 719 L 243 726 L 252 732 L 233 738 L 231 740 L 249 751 L 227 763 L 225 766 L 243 772 L 222 787 L 224 792 L 232 791 L 240 792 L 228 800 L 219 812 L 233 811 L 236 812 L 229 816 L 219 830 L 221 835 L 236 831 L 237 831 L 226 851 L 228 859 L 241 853 L 242 853 L 234 877 Q 273 910 341 915 L 348 915 L 345 910 L 343 907 L 337 900 L 338 898 L 318 855 L 319 853 L 344 869 L 345 869 L 328 823 L 348 838 L 357 849 L 359 849 L 336 788 L 338 787 L 336 786 L 339 784 L 354 811 L 355 811 L 349 766 L 339 735 L 343 733 L 355 754 L 359 753 L 355 725 L 356 707 L 366 728 L 368 727 Q 367 695 357 672 L 358 669 L 371 693 L 373 694 L 370 665 L 373 647 L 386 694 L 386 711 L 388 711 L 395 700 L 397 699 Q 385 726 382 764 L 383 782 L 395 756 L 397 754 L 399 768 L 398 788 L 399 797 L 416 766 L 420 764 L 421 772 L 420 778 L 421 787 L 458 734 L 459 734 L 450 766 L 451 768 L 453 767 L 488 724 L 490 725 Q 488 756 471 773 L 472 774 L 493 759 L 495 758 L 474 807 L 475 808 L 477 805 L 480 803 L 492 788 L 494 786 L 521 750 L 522 748 L 516 751 L 514 752 L 524 730 L 524 728 L 520 731 L 517 733 L 532 711 L 530 710 L 546 685 L 552 678 L 530 681 L 550 628 L 551 626 L 525 646 L 519 653 L 508 663 L 508 665 L 503 667 L 502 665 Q 513 633 532 610 L 532 608 L 514 623 L 510 628 L 508 629 L 502 634 Q 513 601 535 579 L 568 548 L 575 542 L 563 561 L 564 562 L 592 540 L 611 520 L 614 521 L 615 521 L 607 536 L 608 537 L 657 493 L 648 503 L 650 504 L 652 503 L 640 521 L 641 523 L 672 499 L 673 500 L 668 504 L 670 505 L 671 503 L 674 501 L 676 500 L 660 520 L 661 521 L 723 477 Q 747 457 760 426 L 760 424 L 739 437 L 737 437 L 761 389 L 772 335 L 771 330 L 737 347 L 717 377 L 700 332 L 700 308 L 715 266 L 718 246 L 718 244 L 719 228 L 719 226 L 718 219 L 718 217 L 715 186 L 715 184 L 718 161 L 616 237 L 608 235 Q 575 204 565 151 L 564 146 Z M 727 537 Q 692 548 666 567 L 663 569 L 676 554 L 675 554 L 674 553 L 674 551 L 675 548 L 676 546 L 654 561 L 651 565 L 642 573 L 640 576 L 630 583 L 641 562 L 645 557 L 641 559 Q 615 582 597 612 L 594 614 L 602 592 L 602 589 L 563 648 L 564 649 L 586 635 L 588 636 L 582 645 L 579 650 L 547 703 L 541 707 L 539 710 Q 559 703 572 688 L 573 689 L 538 740 L 529 747 L 531 747 L 532 750 L 532 749 L 535 747 L 523 777 L 522 779 L 546 762 L 549 760 L 520 814 L 521 815 L 524 813 L 540 791 L 552 780 L 553 781 L 540 809 L 541 810 L 606 742 L 577 763 L 575 763 L 594 737 L 596 735 L 615 713 L 634 699 L 634 698 L 598 712 L 596 712 L 605 701 L 636 680 L 687 667 L 689 665 L 687 666 L 677 664 L 675 665 L 665 663 L 652 663 L 651 661 L 685 652 L 718 653 L 721 652 L 727 653 L 731 653 L 709 644 Q 699 646 700 642 L 709 640 L 732 641 L 734 640 L 777 646 L 781 646 L 742 632 L 765 627 L 792 629 L 794 629 L 749 611 L 762 609 L 765 608 L 775 609 L 777 608 L 799 612 L 808 612 L 787 603 L 782 601 L 813 598 L 767 586 L 760 584 L 777 582 L 779 582 L 801 580 Q 779 572 750 573 L 781 562 L 778 560 L 744 563 L 733 563 L 758 548 L 758 547 L 704 559 L 712 548 L 728 538 L 727 537 Z M 656 748 Q 621 782 601 830 L 599 831 Q 606 801 621 781 L 621 779 L 614 790 L 613 790 L 625 764 L 625 762 L 605 791 L 579 861 L 582 872 L 589 852 L 592 891 L 601 866 L 602 866 L 601 875 L 603 881 L 619 853 L 627 846 L 629 845 L 614 884 L 615 886 Q 634 850 661 822 L 674 810 L 696 787 L 656 815 L 651 819 L 685 773 L 702 760 L 703 758 Q 670 766 648 784 L 646 784 L 643 785 L 650 774 L 670 755 L 673 751 L 650 763 L 645 767 L 656 750 L 656 748 Z " /><path fill="rgb(239,112,32)" stroke="rgb(239,112,32)" stroke-width="0" opacity="1" d="M 563.5 146 L 565 150.5 Q 574.7 204.3 607.5 235 L 615.5 237 L 718 161 L 715 183.5 L 715 185.5 L 718 216.5 L 718 218.5 L 719 225.5 L 719 227.5 L 718 243.5 L 718 245.5 L 715 265.5 L 700 307.5 L 700 331.5 L 716.5 377 L 736.5 347 L 770.5 330 L 772 334.5 L 761 388.5 L 737 436.5 L 738.5 437 L 759.5 424 L 760 425.5 Q 747 457 722.5 477 L 660.5 521 L 660 519.5 L 674 501 L 671 502.5 L 669.5 505 L 668 503.5 L 670.5 500 L 640.5 523 L 640 520.5 L 650 504.5 L 648 504 L 656 494.5 L 654.5 494 L 607.5 537 L 607 535.5 L 615 520.5 L 613.5 521 L 610.5 520 L 591.5 540 L 563.5 562 L 563 560.5 L 575 541.5 L 567.5 548 L 535 578.5 Q 513.2 600.7 502 633.5 L 507.5 629 L 510 627.5 L 513.5 623 L 532.5 607 L 532 608.5 L 502 664.5 L 503 667 L 508 664.5 L 507.5 663 L 519 652.5 L 524.5 646 L 550.5 626 L 550 627.5 L 530 681 L 551.5 678 L 546 684.5 L 530 709.5 L 532 710.5 L 517 732.5 L 519.5 731 L 523.5 728 L 524 729.5 L 514 751.5 L 515.5 751 L 521.5 748 L 521 749.5 L 494 786 L 492 787.5 L 480 803 L 477 804.5 L 474.5 808 L 474 806.5 L 495 757.5 L 492.5 759 L 470.5 775 L 471 773.5 Q 487.2 755.7 490 724.5 L 488 724 L 452.5 767 L 450.5 768 L 450 765.5 L 459 733.5 L 458 733.5 L 420.5 787 L 420 777.5 L 421 771.5 L 420 764 L 416 765.5 L 398.5 797 L 398 787.5 L 399 767.5 L 397 754 L 395 755.5 L 382.5 782 L 382 763.5 Q 384.8 726.3 397 698.5 L 395 699.5 L 388 711 L 386 710.5 L 386 693.5 L 372.5 647 L 370 664.5 L 373 694 L 371 692.5 L 357.5 669 L 357 671.5 Q 366.8 694.7 368 726.5 L 366 727.5 L 355.5 707 L 355 724.5 L 359 752.5 L 355 753.5 L 343 733 L 339 734.5 L 349 765.5 L 355 810.5 L 354 810.5 L 339 784 L 336 786 L 338 786.5 L 336 787.5 L 359 848.5 L 357 849 L 347.5 838 L 328 823 L 345 868.5 L 343.5 869 L 318.5 853 L 318 854.5 L 340 899.5 L 337 898.5 L 342.5 907 L 345 909.5 L 348 914.5 L 340.5 915 Q 272.6 910.4 234 876.5 L 242 852.5 L 240.5 853 L 227.5 859 L 226 850.5 L 237 830.5 L 235.5 831 L 220.5 835 L 219 829.5 L 229 816 L 236 811.5 L 232.5 811 L 219 812 L 227.5 800 L 240 791.5 L 231.5 791 L 223.5 792 L 222 786.5 L 243 771.5 L 225 766 L 226.5 763 L 249 750.5 L 231 739.5 L 232.5 738 L 252 731.5 L 243 725.5 L 245.5 719 L 259.5 715 L 261 715.5 L 259.5 714 L 249 700.5 L 250 698 L 266.5 696 L 268 696.5 L 257 679.5 Q 260.5 673.5 273.5 677 L 277 678 L 269 660.5 L 270 658 L 292.5 666 L 290 662.5 L 284 645 L 289.5 644 L 307.5 652 L 308 650.5 L 304 632.5 L 305 630 Q 317.2 628.6 320 638.5 L 320.5 640 L 321 636.5 L 320 616.5 L 323.5 615 L 332 622.5 L 340.5 633 L 341 623.5 L 339 617.5 L 339 615.5 L 329 587.5 L 296 539.5 Q 287.5 522.5 290 494.5 L 303 457.5 L 300 434.5 L 302 422.5 L 301 420.5 Q 308 383.5 327 358.5 L 402.5 275 L 416.5 262 L 417 264.5 L 415 270.5 L 415 272.5 Q 412.8 299.3 421 315.5 Q 434.2 344.3 457.5 363 L 494 395.5 Q 512.5 412 511.5 448 Q 533.4 427.9 546 398.5 Q 553.3 381.8 552 356.5 L 547 327.5 L 528 270.5 L 525 227.5 Q 532.3 174.8 563.5 146 Z " /><path fill="rgb(239,112,32)" stroke="rgb(239,112,32)" stroke-width="0" opacity="1" d="M 726.5 537 L 728 537.5 L 712 548 L 704 559 L 757.5 547 L 757.5 548 L 733 562.5 L 743.5 563 L 777.5 560 L 781 561.5 L 750 572.5 Q 779 572.5 801 579.5 L 778.5 582 L 776.5 582 L 760 584 L 766.5 586 L 813 597.5 L 782 601 L 786.5 603 L 809 612.5 L 807.5 612 L 776.5 608 L 774.5 609 L 764.5 608 L 761.5 609 L 749 610.5 L 794 628.5 L 791.5 629 L 764.5 627 L 742 631.5 L 781 645.5 L 776.5 646 L 733.5 640 L 731.5 641 L 708.5 640 L 700 642 Q 699 646 708.5 644 L 731 652.5 L 726.5 653 L 720.5 652 L 717.5 653 L 684.5 652 L 651 661 L 651.5 663 L 664.5 663 L 674.5 665 L 676.5 664 L 686.5 666 L 689 665 L 686.5 667 L 635.5 680 L 605 700.5 L 596 711.5 L 597.5 712 L 633.5 698 L 633.5 699 L 615 712.5 L 596 735 L 594 736.5 L 575 762.5 L 576.5 763 L 609.5 739 L 609.5 740 L 606 742.5 L 540.5 810 L 540 808.5 L 553 780.5 L 551.5 780 L 540 790.5 L 524 813 L 520.5 815 L 520 813.5 L 549 759.5 L 545.5 762 L 521.5 779 L 523 776.5 L 535 746.5 L 532 748.5 L 531.5 750 L 531 747 L 529 746.5 L 538 739.5 L 573 688.5 L 571.5 688 Q 558.2 704.2 536.5 712 L 536 710 L 547 702.5 L 579 649.5 L 582 644.5 L 588 635.5 L 585.5 635 L 563.5 649 L 563 647.5 L 601.5 589 L 602 591.5 L 594 613.5 L 597 611.5 Q 615.1 581.6 640.5 559 L 645.5 556 L 641 561.5 L 630 582.5 L 640 575.5 L 642 572.5 L 651 564.5 L 653.5 561 L 675.5 546 L 675 547.5 L 674 550.5 L 677 549.5 L 674 553.5 L 677 552.5 L 665 566.5 L 666.5 567 Q 690.8 546.3 726.5 537 Z " /><path fill="rgb(239,112,32)" stroke="rgb(239,112,32)" stroke-width="0" opacity="1" d="M 655.5 748 L 656 749.5 L 645 766.5 L 649.5 763 L 662 755.5 L 660 754.5 L 662 753.5 L 663.5 755 L 672.5 751 L 669.5 755 L 650 773.5 L 643 785 L 645.5 784 L 647.5 784 Q 669.6 765.6 702.5 758 L 701.5 760 L 685 773 L 651 818.5 L 655.5 815 L 695.5 787 L 673.5 810 L 661 821.5 Q 633.2 850.2 613.5 887 L 614 885.5 L 629 844.5 L 626.5 846 L 619 852.5 L 602.5 881 L 601 874.5 L 602 865.5 L 601 865.5 L 591.5 891 L 588.5 852 L 581.5 872 L 579 860.5 L 605 790.5 L 624.5 762 L 625 763.5 L 613 789.5 L 614 789.5 L 620.5 779 L 621 780.5 Q 605.6 800.1 600 829.5 L 601 829.5 Q 621.3 781.8 655.5 748 Z " /></svg>